<?xml version="1.0" encoding="UTF-8"?>
<svg id="Capa_1" data-name="Capa 1" xmlns="http://www.w3.org/2000/svg" viewBox="0 0 30 30">
  <defs>
    <style>
      .cls-1 {
        fill: #bc482b;
        stroke-width: 0px;
      }
    </style>
  </defs>
  <path class="cls-1" d="m30,11.66v1.93c-.02.09-.04.17-.05.26-.07,1.21-.29,2.4-.63,3.57-.97,3.36-2.8,6.18-5.47,8.45-2.57,2.19-5.53,3.5-8.88,3.97-.46.06-.93.11-1.39.17h-1.93c-.52-.06-1.05-.11-1.56-.19-3.75-.58-6.99-2.19-9.69-4.86-.15-.15-.27-.34-.34-.54-.19-.54.05-.95.43-1.33C8.03,15.56,15.56,8.03,23.09.5c.05-.05.1-.1.15-.14.52-.48,1.19-.47,1.7.03.17.17.34.35.5.53,2.42,2.67,3.89,5.79,4.39,9.36.06.46.11.93.17,1.39ZM2.92,24.06c5.75,4.96,14.8,4.85,20.45-.96,5.76-5.92,5.37-14.85.69-20.17-.7.7-1.4,1.41-2.11,2.11,4.42,5.49,2.8,12.55-.86,16.09-2.15,2.07-4.7,3.26-7.68,3.45-3.13.2-5.93-.72-8.37-2.65-.71.72-1.41,1.42-2.13,2.13Zm12.66-12.64h6.6c-.23-1.76-.87-3.32-1.92-4.68-1.57,1.57-3.12,3.12-4.68,4.68Zm4.68,7.09c1.06-1.39,1.71-2.94,1.92-4.68h-6.61c1.56,1.56,3.11,3.11,4.68,4.68Zm-8.84,3.67v-6.59c-1.55,1.55-3.1,3.1-4.67,4.67,1.36,1.05,2.92,1.69,4.67,1.92Zm7.06-1.9c-1.57-1.57-3.13-3.13-4.65-4.65v6.55c1.76-.23,3.32-.87,4.65-1.9Z"/>
</svg>